<?xml version="1.0" encoding="iso-8859-1"?>
<!-- Uploaded to: SVG Repo, www.svgrepo.com, Generator: SVG Repo Mixer Tools -->
<svg fill="#000000" height="800px" width="800px" version="1.1" id="Layer_1" xmlns="http://www.w3.org/2000/svg" xmlns:xlink="http://www.w3.org/1999/xlink" 
	 viewBox="0 0 488.106 488.106" xml:space="preserve">
<g>
	<g>
		<g>
			<path d="M405.26,395.767c-16.296-13.132-37.596-23.934-63.314-32.111c-1.603-0.843-6.512-3.453-12.513-6.928
				c-12.958-7.558-22.688-14.259-27.879-19.169v-24.31c30.386-17.373,51.164-48.543,57.804-86.697
				c17.213-4.929,32.196-21.085,32.196-35.946c0-15.044-11.308-25.026-30-27.094V95.606l-0.001-0.112
				c-0.01-0.708-0.397-17.538-12.363-34.253c-18.819-26.29-51.635-32.64-77.001-33.106L244.054,0l-28.135,28.135
				c-25.366,0.467-58.182,6.816-77.001,33.106c-11.965,16.715-12.353,33.545-12.363,34.253l-0.001,68.018
				c-18.692,2.068-30,12.051-30,27.094c0,14.861,14.983,31.017,32.196,35.946c6.647,38.168,27.428,69.336,57.804,86.697v24.31
				c-5.191,4.909-14.919,11.609-27.858,19.157c-6.041,3.497-10.966,6.115-12.552,6.948c-25.305,8.195-46.49,19.021-62.974,32.184
				c-35.753,28.581-36.598,58.394-36.616,59.648l-0.001,32.61h395v-32.527C441.549,454.313,441.029,424.253,405.26,395.767z
				 M361.554,178.588c13.367,1.875,15,8.786,15,12.018c0,6.126-6.627,14.466-15.266,19.07
				C361.453,206.713,361.554,178.588,361.554,178.588z M111.554,190.606c0-3.232,1.633-10.144,15-12.018
				c0,0,0.101,28.125,0.266,31.088C118.181,205.072,111.554,196.732,111.554,190.606z M141.555,95.704
				c0.089-2.832,2.777-52.598,77.499-52.598h3.106l21.894-21.894l21.894,21.894h3.106c74.938,0,77.425,50.054,77.5,52.581v42.327
				c-60.057-1.417-109.403-19.26-109.912-19.447l-3.398-1.25l-3.092,1.885c-37.845,23.062-74.687,21.632-88.597,19.991V95.704z
				 M142.781,219.263c-0.814-5.79-1.227-12.066-1.227-18.656v-46.27c16.739,1.803,53.996,2.301,93.332-20.5
				c12.539,4.216,57.411,17.99,111.668,19.187v47.583c0,6.59-0.413,12.866-1.229,18.674c-5.158,37.347-25.101,67.549-54.733,82.874
				c-13.962,7.268-29.62,10.952-46.537,10.952c-16.917,0-32.575-3.685-46.555-10.962
				C167.885,286.829,147.942,256.627,142.781,219.263z M286.554,320.405v17.312c-5.13,5.363-21.387,20.389-42.5,20.389
				c-20.977,0-37.346-15.055-42.5-20.404v-17.298c13.183,5.108,27.424,7.702,42.5,7.702
				C259.133,328.106,273.378,325.511,286.554,320.405z M193.813,351.157c8.651,8.143,26.78,21.949,50.241,21.949
				c23.461,0,41.59-13.807,50.242-21.949c4.466,3.753,10.41,7.964,17.776,12.598c-38.964,27.098-61.67,29.351-68.018,29.351
				c-21.88,0-51.531-18.043-67.986-29.371C183.417,359.11,189.351,354.906,193.813,351.157z M61.554,473.107v-17.419
				c0.031-0.922,1.105-22.599,27.8-45.48c15.21,5.835,48.138,22.999,51.851,62.899H61.554z M156.269,473.107
				c-3.196-42.419-33.2-63.714-53.036-73.231c13.405-8.73,29.522-16.155,48.116-22.129c0,0,5.13-2.542,10.592-5.613
				c17.648,12.755,53.682,35.973,82.114,35.973s64.466-23.218,82.114-35.973c5.456,3.069,10.63,5.625,10.63,5.625
				c18.831,5.94,35.019,13.307,48.348,21.973c-7.708,3.668-16.827,9.057-25.421,16.787c-16.843,15.151-26.178,34.168-27.867,56.588
				H156.269z M346.901,473.106c3.717-40.155,36.872-57.242,52.142-63.016c26.697,22.82,27.491,44.653,27.511,45.516v17.5H346.901z"
				/>
			<path d="M244.054,248.106h20v-15h-12.5v-32.5h-15v40C236.554,244.749,239.912,248.106,244.054,248.106z"/>
		</g>
	</g>
</g>
</svg>